<svg xmlns="http://www.w3.org/2000/svg" viewBox="0 0 120 120">
  <defs>
    <linearGradient id="virtualBg" x1="0%" y1="0%" x2="100%" y2="100%">
      <stop offset="0%" style="stop-color:#f3e5f5"/>
      <stop offset="100%" style="stop-color:#e1bee7"/>
    </linearGradient>
  </defs>
  <!-- Background -->
  <rect width="120" height="120" fill="url(#virtualBg)" rx="8"/>
  <!-- Abstract mountains/landscape -->
  <path d="M0 90 L30 50 L45 65 L70 35 L95 70 L120 45 L120 120 L0 120 Z" fill="#ba68c8" opacity="0.3"/>
  <path d="M0 100 L40 60 L60 80 L90 55 L120 85 L120 120 L0 120 Z" fill="#ab47bc" opacity="0.4"/>
  <!-- Organization building icon -->
  <g transform="translate(60, 60)">
    <!-- Building structure -->
    <rect x="-25" y="-25" width="50" height="50" fill="#7b1fa2" rx="2"/>
    <!-- Windows -->
    <rect x="-18" y="-18" width="8" height="8" fill="#f3e5f5" opacity="0.8"/>
    <rect x="-5" y="-18" width="8" height="8" fill="#f3e5f5" opacity="0.8"/>
    <rect x="8" y="-18" width="8" height="8" fill="#f3e5f5" opacity="0.8"/>
    <rect x="-18" y="-5" width="8" height="8" fill="#f3e5f5" opacity="0.8"/>
    <rect x="-5" y="-5" width="8" height="8" fill="#f3e5f5" opacity="0.8"/>
    <rect x="8" y="-5" width="8" height="8" fill="#f3e5f5" opacity="0.8"/>
    <rect x="-18" y="8" width="8" height="8" fill="#f3e5f5" opacity="0.8"/>
    <rect x="-5" y="8" width="8" height="8" fill="#f3e5f5" opacity="0.8"/>
    <rect x="8" y="8" width="8" height="8" fill="#f3e5f5" opacity="0.8"/>
    <!-- Door -->
    <rect x="-5" y="13" width="10" height="12" fill="#4a148c"/>
  </g>
  <!-- Network connection dots -->
  <circle cx="25" cy="30" r="4" fill="#9c27b0" opacity="0.6"/>
  <circle cx="95" cy="35" r="4" fill="#9c27b0" opacity="0.6"/>
  <circle cx="15" cy="70" r="4" fill="#9c27b0" opacity="0.6"/>
  <circle cx="105" cy="75" r="4" fill="#9c27b0" opacity="0.6"/>
  <!-- Connection lines -->
  <line x1="25" y1="30" x2="60" y2="60" stroke="#9c27b0" stroke-width="1" opacity="0.3"/>
  <line x1="95" y1="35" x2="60" y2="60" stroke="#9c27b0" stroke-width="1" opacity="0.3"/>
  <line x1="15" y1="70" x2="60" y2="60" stroke="#9c27b0" stroke-width="1" opacity="0.3"/>
  <line x1="105" y1="75" x2="60" y2="60" stroke="#9c27b0" stroke-width="1" opacity="0.3"/>
</svg>
